<svg xmlns="http://www.w3.org/2000/svg" width="336.477" height="83.51" viewBox="0 0 336.477 83.51"><defs><style>.a{fill:#fff;}</style></defs><g transform="translate(0 -301.7)"><g transform="translate(102.07 326.797)"><path class="a" d="M610.266,474.343h-1c-9.464,0-16.86-1.805-21.539-5.153a11.632,11.632,0,0,1-5.328-9.727c0-3.786,2.068-6.905,5.083-9.148,4.557-3.347,12.25-5.415,20.943-5.415h1.314l.3,3.085h-.946c-4.854,0-10.41.754-14.2,2.366-5.5,2.331-7.571,5.994-7.571,9.148,0,3.821,2.366,7.133,7.326,9.289a39.334,39.334,0,0,0,14.669,2.506h1.367Z" transform="translate(-582.4 -444.9)"/><path class="a" d="M804.23,475.5c-3.663,0-7.816.053-11.83.053.052-3.61.123-9.99.123-13.951,0-4.311-.053-9.411-.123-14.7,3.733,0,8.044.035,11.479.035,4.8,0,10.708-.035,12.724-.035v3c-2.909-.053-7.746-.088-11.953-.088-2.243,0-5.205,0-7.519.035,0,3.26-.123,6.467-.123,9.376,1.595,0,4.5.035,6.2.035,4.557,0,10.884-.035,13.372-.088v3c-3.137-.035-8.588-.088-13.074-.088-1.84,0-4.8.053-6.5.053,0,4.346,0,8.044.052,10.428,3.26.053,6.45.053,9.411.053,3.961,0,7.4,0,10.463-.053v3c-2.944,0-6.975-.053-12.706-.053" transform="translate(-755.596 -446.549)"/><path class="a" d="M1025.691,474.493c-12.005-12.058-20.295-19.541-25.132-24.028,0,4.276.123,16.106.245,23.905h-4.5s.123-5.1.123-12.987c0-4.189-.07-9.061-.123-14.441l4.381-1.542c7.571,7.133,19.226,18.122,24.606,23.011.053-3.821-.228-18.437-.228-22.836h4.486c-.052,5.153-.123,11.707-.123,13.986,0,4.189,0,8.623.123,13.512Z" transform="translate(-923.761 -445.312)"/><path class="a" d="M1245.357,449.844c-.052,4.4-.123,8.938-.123,12.9,0,5.538.052,9.814.123,12.846h-4.732c.053-2.541.123-6.414.123-13.022,0-3.733,0-8.185-.052-12.724-4.977-.035-11.006.053-14.2.053v-3c5.5,0,11.357.035,16.317.035,6.4,0,12.723-.035,16.737-.035v3c-3.663-.053-10.358-.053-14.2-.053" transform="translate(-1113.616 -446.549)"/><path class="a" d="M1481.5,475.338c-3.488-2.909-8.1-6.642-16.439-13.81l.052-.175a20.725,20.725,0,0,0,5.976-2.506,5.479,5.479,0,0,0,2.664-4.662c0-2.208-1.647-3.873-4.381-4.627a26.506,26.506,0,0,0-6.975-.666c-1.367,0-2.366.035-2.366.035-.053,4.1-.105,10.13-.105,11.585,0,3.523.105,12.2.105,14.354H1455.3c.053-3.085.123-9.411.123-14.213,0-1.49,0-6.958-.123-14.564,1.648,0,4.732-.088,7.694-.088a33.608,33.608,0,0,1,9.464,1.139c3.908,1.227,6.2,3.61,6.2,6.782,0,4.084-4.031,6.607-7.4,8.149,2.068,1.84,8.219,6.818,13.845,11.094Z" transform="translate(-1302.318 -445.807)"/><path class="a" d="M1669.6,475.177c.07-3.12.123-9.674.123-14.073,0-4.364-.053-9.429-.123-14.7h4.732c-.052,4.925-.123,9.639-.123,13.828,0,5.1.053,10.253.123,14.967H1669.6Z" transform="translate(-1479.06 -446.137)"/><path class="a" d="M1786.466,474.343h-1c-9.464,0-16.86-1.805-21.539-5.153a11.674,11.674,0,0,1-5.328-9.727c0-3.786,2.068-6.905,5.083-9.148,4.557-3.347,12.25-5.415,20.943-5.415h1.3l.3,3.085h-.946c-4.855,0-10.41.754-14.2,2.366-5.5,2.331-7.571,5.994-7.571,9.148,0,3.821,2.366,7.133,7.326,9.289a39.273,39.273,0,0,0,14.669,2.506h1.367Z" transform="translate(-1552.462 -444.9)"/></g><g transform="translate(0 301.7)"><path class="a" d="M9,331.6c5.065-17.456,21.1-29.9,40.66-29.9a43.051,43.051,0,0,1,33.4,15.721l.4.473-17.894,8.079-.175-.228a34.892,34.892,0,0,0-34.929-11.374C20.777,316.632,13.294,323.59,9,331.6Z" transform="translate(-7.423 -301.7)"/><path class="a" d="M19.541,450.782c-.508-.193-1.016-.368-1.507-.578A41.459,41.459,0,0,1,.07,421.374L0,419.1c0-.263,0-.648.035-1.1C.648,406.758,9.2,393.3,22.573,389.6a39.617,39.617,0,0,0-4.224,17.876c-.018,19.1,13.46,35.139,31.651,39.573C35.034,456.233,19.7,450.835,19.541,450.782Z" transform="translate(0 -374.195)"/><path class="a" d="M211.708,497.113a41.142,41.142,0,0,1-12.513,29.531,43.457,43.457,0,0,1-45.795,9.324c1.174.105,2.454.175,3.821.175a38.945,38.945,0,0,0,21.732-6.52c16.492-10.936,13.46-32.773,13.425-32.983l-.053-.35L210.674,488l.14.578A40.3,40.3,0,0,1,211.708,497.113Z" transform="translate(-126.516 -455.35)"/></g></g></svg>